<mxfile host="app.diagrams.net" agent="Mozilla/5.0 (Windows NT 10.0; Win64; x64; rv:128.0) Gecko/20100101 Firefox/128.0" version="24.7.6">
  <diagram name="Page-1" id="lAEC4sKNwvME6B4Y-kTL">
    <mxGraphModel dx="2954" dy="1134" grid="1" gridSize="10" guides="1" tooltips="1" connect="1" arrows="1" fold="1" page="1" pageScale="1" pageWidth="850" pageHeight="1100" math="0" shadow="0">
      <root>
        <mxCell id="0" />
        <mxCell id="1" parent="0" />
        <mxCell id="2yeSt3VRnw0PstPdTCbh-1" value="" style="rounded=1;whiteSpace=wrap;html=1;" parent="1" vertex="1">
          <mxGeometry x="240" y="40" width="370" height="120" as="geometry" />
        </mxCell>
        <mxCell id="4pZrdhgn44m1h8Vc9Evg-7" value="Assets" style="childLayout=tableLayout;recursiveResize=0;strokeColor=#98bf21;fillColor=#A7C942;shadow=1;textShadow=0;" vertex="1" parent="1">
          <mxGeometry x="120.5" y="250" width="610" height="320" as="geometry" />
        </mxCell>
        <mxCell id="4pZrdhgn44m1h8Vc9Evg-8" style="shape=tableRow;horizontal=0;startSize=0;swimlaneHead=0;swimlaneBody=0;top=0;left=0;bottom=0;right=0;dropTarget=0;collapsible=0;recursiveResize=0;expand=0;fontStyle=0;strokeColor=inherit;fillColor=#ffffff;" vertex="1" parent="4pZrdhgn44m1h8Vc9Evg-7">
          <mxGeometry width="610" height="66" as="geometry" />
        </mxCell>
        <mxCell id="4pZrdhgn44m1h8Vc9Evg-9" value="Title 1" style="connectable=0;recursiveResize=0;strokeColor=inherit;fillColor=#A7C942;align=center;fontStyle=1;fontColor=#FFFFFF;html=1;" vertex="1" parent="4pZrdhgn44m1h8Vc9Evg-8">
          <mxGeometry width="122" height="66" as="geometry">
            <mxRectangle width="122" height="66" as="alternateBounds" />
          </mxGeometry>
        </mxCell>
        <mxCell id="4pZrdhgn44m1h8Vc9Evg-10" value="Title 2" style="connectable=0;recursiveResize=0;strokeColor=inherit;fillColor=#A7C942;align=center;fontStyle=1;fontColor=#FFFFFF;html=1;" vertex="1" parent="4pZrdhgn44m1h8Vc9Evg-8">
          <mxGeometry x="122" width="122" height="66" as="geometry">
            <mxRectangle width="122" height="66" as="alternateBounds" />
          </mxGeometry>
        </mxCell>
        <mxCell id="4pZrdhgn44m1h8Vc9Evg-11" value="Title 3" style="connectable=0;recursiveResize=0;strokeColor=inherit;fillColor=#A7C942;align=center;fontStyle=1;fontColor=#FFFFFF;html=1;" vertex="1" parent="4pZrdhgn44m1h8Vc9Evg-8">
          <mxGeometry x="244" width="122" height="66" as="geometry">
            <mxRectangle width="122" height="66" as="alternateBounds" />
          </mxGeometry>
        </mxCell>
        <mxCell id="4pZrdhgn44m1h8Vc9Evg-49" style="connectable=0;recursiveResize=0;strokeColor=inherit;fillColor=#A7C942;align=center;fontStyle=1;fontColor=#FFFFFF;html=1;" vertex="1" parent="4pZrdhgn44m1h8Vc9Evg-8">
          <mxGeometry x="366" width="122" height="66" as="geometry">
            <mxRectangle width="122" height="66" as="alternateBounds" />
          </mxGeometry>
        </mxCell>
        <mxCell id="4pZrdhgn44m1h8Vc9Evg-54" style="connectable=0;recursiveResize=0;strokeColor=inherit;fillColor=#A7C942;align=center;fontStyle=1;fontColor=#FFFFFF;html=1;" vertex="1" parent="4pZrdhgn44m1h8Vc9Evg-8">
          <mxGeometry x="488" width="122" height="66" as="geometry">
            <mxRectangle width="122" height="66" as="alternateBounds" />
          </mxGeometry>
        </mxCell>
        <mxCell id="4pZrdhgn44m1h8Vc9Evg-12" value="" style="shape=tableRow;horizontal=0;startSize=0;swimlaneHead=0;swimlaneBody=0;top=0;left=0;bottom=0;right=0;dropTarget=0;collapsible=0;recursiveResize=0;expand=0;fontStyle=0;strokeColor=inherit;fillColor=#ffffff;" vertex="1" parent="4pZrdhgn44m1h8Vc9Evg-7">
          <mxGeometry y="66" width="610" height="64" as="geometry" />
        </mxCell>
        <mxCell id="4pZrdhgn44m1h8Vc9Evg-13" value="Value 1" style="connectable=0;recursiveResize=0;strokeColor=inherit;fillColor=inherit;align=center;whiteSpace=wrap;html=1;" vertex="1" parent="4pZrdhgn44m1h8Vc9Evg-12">
          <mxGeometry width="122" height="64" as="geometry">
            <mxRectangle width="122" height="64" as="alternateBounds" />
          </mxGeometry>
        </mxCell>
        <mxCell id="4pZrdhgn44m1h8Vc9Evg-14" value="Value 2" style="connectable=0;recursiveResize=0;strokeColor=inherit;fillColor=inherit;align=center;whiteSpace=wrap;html=1;" vertex="1" parent="4pZrdhgn44m1h8Vc9Evg-12">
          <mxGeometry x="122" width="122" height="64" as="geometry">
            <mxRectangle width="122" height="64" as="alternateBounds" />
          </mxGeometry>
        </mxCell>
        <mxCell id="4pZrdhgn44m1h8Vc9Evg-15" value="Value 3" style="connectable=0;recursiveResize=0;strokeColor=inherit;fillColor=inherit;align=center;whiteSpace=wrap;html=1;" vertex="1" parent="4pZrdhgn44m1h8Vc9Evg-12">
          <mxGeometry x="244" width="122" height="64" as="geometry">
            <mxRectangle width="122" height="64" as="alternateBounds" />
          </mxGeometry>
        </mxCell>
        <mxCell id="4pZrdhgn44m1h8Vc9Evg-50" style="connectable=0;recursiveResize=0;strokeColor=inherit;fillColor=inherit;align=center;whiteSpace=wrap;html=1;" vertex="1" parent="4pZrdhgn44m1h8Vc9Evg-12">
          <mxGeometry x="366" width="122" height="64" as="geometry">
            <mxRectangle width="122" height="64" as="alternateBounds" />
          </mxGeometry>
        </mxCell>
        <mxCell id="4pZrdhgn44m1h8Vc9Evg-55" style="connectable=0;recursiveResize=0;strokeColor=inherit;fillColor=inherit;align=center;whiteSpace=wrap;html=1;" vertex="1" parent="4pZrdhgn44m1h8Vc9Evg-12">
          <mxGeometry x="488" width="122" height="64" as="geometry">
            <mxRectangle width="122" height="64" as="alternateBounds" />
          </mxGeometry>
        </mxCell>
        <mxCell id="4pZrdhgn44m1h8Vc9Evg-16" value="" style="shape=tableRow;horizontal=0;startSize=0;swimlaneHead=0;swimlaneBody=0;top=0;left=0;bottom=0;right=0;dropTarget=0;collapsible=0;recursiveResize=0;expand=0;fontStyle=1;strokeColor=inherit;fillColor=#EAF2D3;" vertex="1" parent="4pZrdhgn44m1h8Vc9Evg-7">
          <mxGeometry y="130" width="610" height="62" as="geometry" />
        </mxCell>
        <mxCell id="4pZrdhgn44m1h8Vc9Evg-17" value="Value 4" style="connectable=0;recursiveResize=0;strokeColor=inherit;fillColor=inherit;whiteSpace=wrap;html=1;" vertex="1" parent="4pZrdhgn44m1h8Vc9Evg-16">
          <mxGeometry width="122" height="62" as="geometry">
            <mxRectangle width="122" height="62" as="alternateBounds" />
          </mxGeometry>
        </mxCell>
        <mxCell id="4pZrdhgn44m1h8Vc9Evg-18" value="Value 5" style="connectable=0;recursiveResize=0;strokeColor=inherit;fillColor=inherit;whiteSpace=wrap;html=1;" vertex="1" parent="4pZrdhgn44m1h8Vc9Evg-16">
          <mxGeometry x="122" width="122" height="62" as="geometry">
            <mxRectangle width="122" height="62" as="alternateBounds" />
          </mxGeometry>
        </mxCell>
        <mxCell id="4pZrdhgn44m1h8Vc9Evg-19" value="Value 6" style="connectable=0;recursiveResize=0;strokeColor=inherit;fillColor=inherit;whiteSpace=wrap;html=1;" vertex="1" parent="4pZrdhgn44m1h8Vc9Evg-16">
          <mxGeometry x="244" width="122" height="62" as="geometry">
            <mxRectangle width="122" height="62" as="alternateBounds" />
          </mxGeometry>
        </mxCell>
        <mxCell id="4pZrdhgn44m1h8Vc9Evg-51" style="connectable=0;recursiveResize=0;strokeColor=inherit;fillColor=inherit;whiteSpace=wrap;html=1;" vertex="1" parent="4pZrdhgn44m1h8Vc9Evg-16">
          <mxGeometry x="366" width="122" height="62" as="geometry">
            <mxRectangle width="122" height="62" as="alternateBounds" />
          </mxGeometry>
        </mxCell>
        <mxCell id="4pZrdhgn44m1h8Vc9Evg-56" style="connectable=0;recursiveResize=0;strokeColor=inherit;fillColor=inherit;whiteSpace=wrap;html=1;" vertex="1" parent="4pZrdhgn44m1h8Vc9Evg-16">
          <mxGeometry x="488" width="122" height="62" as="geometry">
            <mxRectangle width="122" height="62" as="alternateBounds" />
          </mxGeometry>
        </mxCell>
        <mxCell id="4pZrdhgn44m1h8Vc9Evg-20" value="" style="shape=tableRow;horizontal=0;startSize=0;swimlaneHead=0;swimlaneBody=0;top=0;left=0;bottom=0;right=0;dropTarget=0;collapsible=0;recursiveResize=0;expand=0;fontStyle=0;strokeColor=inherit;fillColor=#ffffff;" vertex="1" parent="4pZrdhgn44m1h8Vc9Evg-7">
          <mxGeometry y="192" width="610" height="66" as="geometry" />
        </mxCell>
        <mxCell id="4pZrdhgn44m1h8Vc9Evg-21" value="Value 7" style="connectable=0;recursiveResize=0;strokeColor=inherit;fillColor=inherit;fontStyle=0;align=center;whiteSpace=wrap;html=1;" vertex="1" parent="4pZrdhgn44m1h8Vc9Evg-20">
          <mxGeometry width="122" height="66" as="geometry">
            <mxRectangle width="122" height="66" as="alternateBounds" />
          </mxGeometry>
        </mxCell>
        <mxCell id="4pZrdhgn44m1h8Vc9Evg-22" value="Value 8" style="connectable=0;recursiveResize=0;strokeColor=inherit;fillColor=inherit;fontStyle=0;align=center;whiteSpace=wrap;html=1;" vertex="1" parent="4pZrdhgn44m1h8Vc9Evg-20">
          <mxGeometry x="122" width="122" height="66" as="geometry">
            <mxRectangle width="122" height="66" as="alternateBounds" />
          </mxGeometry>
        </mxCell>
        <mxCell id="4pZrdhgn44m1h8Vc9Evg-23" value="Value 9" style="connectable=0;recursiveResize=0;strokeColor=inherit;fillColor=inherit;fontStyle=0;align=center;whiteSpace=wrap;html=1;" vertex="1" parent="4pZrdhgn44m1h8Vc9Evg-20">
          <mxGeometry x="244" width="122" height="66" as="geometry">
            <mxRectangle width="122" height="66" as="alternateBounds" />
          </mxGeometry>
        </mxCell>
        <mxCell id="4pZrdhgn44m1h8Vc9Evg-52" style="connectable=0;recursiveResize=0;strokeColor=inherit;fillColor=inherit;fontStyle=0;align=center;whiteSpace=wrap;html=1;" vertex="1" parent="4pZrdhgn44m1h8Vc9Evg-20">
          <mxGeometry x="366" width="122" height="66" as="geometry">
            <mxRectangle width="122" height="66" as="alternateBounds" />
          </mxGeometry>
        </mxCell>
        <mxCell id="4pZrdhgn44m1h8Vc9Evg-57" style="connectable=0;recursiveResize=0;strokeColor=inherit;fillColor=inherit;fontStyle=0;align=center;whiteSpace=wrap;html=1;" vertex="1" parent="4pZrdhgn44m1h8Vc9Evg-20">
          <mxGeometry x="488" width="122" height="66" as="geometry">
            <mxRectangle width="122" height="66" as="alternateBounds" />
          </mxGeometry>
        </mxCell>
        <mxCell id="4pZrdhgn44m1h8Vc9Evg-24" value="" style="shape=tableRow;horizontal=0;startSize=0;swimlaneHead=0;swimlaneBody=0;top=0;left=0;bottom=0;right=0;dropTarget=0;collapsible=0;recursiveResize=0;expand=0;fontStyle=1;strokeColor=inherit;fillColor=#EAF2D3;" vertex="1" parent="4pZrdhgn44m1h8Vc9Evg-7">
          <mxGeometry y="258" width="610" height="62" as="geometry" />
        </mxCell>
        <mxCell id="4pZrdhgn44m1h8Vc9Evg-25" value="Value 10" style="connectable=0;recursiveResize=0;strokeColor=inherit;fillColor=inherit;whiteSpace=wrap;html=1;" vertex="1" parent="4pZrdhgn44m1h8Vc9Evg-24">
          <mxGeometry width="122" height="62" as="geometry">
            <mxRectangle width="122" height="62" as="alternateBounds" />
          </mxGeometry>
        </mxCell>
        <mxCell id="4pZrdhgn44m1h8Vc9Evg-26" value="Value 11" style="connectable=0;recursiveResize=0;strokeColor=inherit;fillColor=inherit;whiteSpace=wrap;html=1;" vertex="1" parent="4pZrdhgn44m1h8Vc9Evg-24">
          <mxGeometry x="122" width="122" height="62" as="geometry">
            <mxRectangle width="122" height="62" as="alternateBounds" />
          </mxGeometry>
        </mxCell>
        <mxCell id="4pZrdhgn44m1h8Vc9Evg-27" value="Value 12" style="connectable=0;recursiveResize=0;strokeColor=inherit;fillColor=inherit;whiteSpace=wrap;html=1;" vertex="1" parent="4pZrdhgn44m1h8Vc9Evg-24">
          <mxGeometry x="244" width="122" height="62" as="geometry">
            <mxRectangle width="122" height="62" as="alternateBounds" />
          </mxGeometry>
        </mxCell>
        <mxCell id="4pZrdhgn44m1h8Vc9Evg-53" style="connectable=0;recursiveResize=0;strokeColor=inherit;fillColor=inherit;whiteSpace=wrap;html=1;" vertex="1" parent="4pZrdhgn44m1h8Vc9Evg-24">
          <mxGeometry x="366" width="122" height="62" as="geometry">
            <mxRectangle width="122" height="62" as="alternateBounds" />
          </mxGeometry>
        </mxCell>
        <mxCell id="4pZrdhgn44m1h8Vc9Evg-58" style="connectable=0;recursiveResize=0;strokeColor=inherit;fillColor=inherit;whiteSpace=wrap;html=1;" vertex="1" parent="4pZrdhgn44m1h8Vc9Evg-24">
          <mxGeometry x="488" width="122" height="62" as="geometry">
            <mxRectangle width="122" height="62" as="alternateBounds" />
          </mxGeometry>
        </mxCell>
        <mxCell id="4pZrdhgn44m1h8Vc9Evg-59" value="Top 5 Leagues Best Scorers" style="text;html=1;align=center;verticalAlign=middle;whiteSpace=wrap;rounded=0;" vertex="1" parent="1">
          <mxGeometry x="314" y="66.25" width="223" height="67.5" as="geometry" />
        </mxCell>
      </root>
    </mxGraphModel>
  </diagram>
</mxfile>
